<?xml version="1.0" encoding="UTF-8" standalone="no"?>
<!-- Generator: Inkscape 0.92 . SVG Version: 6.00 Build 0)  -->

<svg
   xmlns:dc="http://purl.org/dc/elements/1.1/"
   xmlns:cc="http://creativecommons.org/ns#"
   xmlns:rdf="http://www.w3.org/1999/02/22-rdf-syntax-ns#"
   xmlns:svg="http://www.w3.org/2000/svg"
   xmlns="http://www.w3.org/2000/svg"
   xmlns:sodipodi="http://sodipodi.sourceforge.net/DTD/sodipodi-0.dtd"
   xmlns:inkscape="http://www.inkscape.org/namespaces/inkscape"
   version="1.1"
   id="Layer_1"
   x="0px"
   y="0px"
   viewBox="0 0 735 852"
   style="enable-background:new 0 0 735 852;"
   xml:space="preserve"
   sodipodi:docname="speakfriend-logo.svg"
   inkscape:version="0.91 r13725"
   inkscape:export-filename="/home/benjamin/speakfriend-20191116.png"
   inkscape:export-xdpi="96"
   inkscape:export-ydpi="96"><metadata
     id="metadata3871"><rdf:RDF><cc:Work
         rdf:about=""><dc:format>image/svg+xml</dc:format><dc:type
           rdf:resource="http://purl.org/dc/dcmitype/StillImage" /><dc:title>template</dc:title><dc:creator><cc:Agent><dc:title>Jon Harmon</dc:title></cc:Agent></dc:creator><dc:rights><cc:Agent><dc:title>CC0</dc:title></cc:Agent></dc:rights><cc:license
           rdf:resource="http://creativecommons.org/publicdomain/zero/1.0/" /></cc:Work><cc:License
         rdf:about="http://creativecommons.org/publicdomain/zero/1.0/"><cc:permits
           rdf:resource="http://creativecommons.org/ns#Reproduction" /><cc:permits
           rdf:resource="http://creativecommons.org/ns#Distribution" /><cc:permits
           rdf:resource="http://creativecommons.org/ns#DerivativeWorks" /></cc:License></rdf:RDF></metadata><defs
     id="defs3869"><clipPath
       clipPathUnits="userSpaceOnUse"
       id="clipPath4193"><path
         style="opacity:1;fill:#ffffff;fill-opacity:1;fill-rule:nonzero;stroke:none;stroke-width:1;stroke-linecap:butt;stroke-linejoin:miter;stroke-miterlimit:4;stroke-dasharray:none;stroke-opacity:1"
         d="m 128.97461,291.13867 0,118.91602 471.52734,0 0,-118.91602 -471.52734,0 z m 201.07227,33.23828 1.96679,3.80469 -17.44336,-1.04492 1.99805,-2.28906 13.47852,-0.47071 z"
         id="path4195"
         inkscape:connector-curvature="0" /></clipPath></defs><sodipodi:namedview
     pagecolor="#ffffff"
     bordercolor="#666666"
     borderopacity="1"
     objecttolerance="10"
     gridtolerance="10"
     guidetolerance="10"
     inkscape:pageopacity="0"
     inkscape:pageshadow="2"
     inkscape:window-width="1863"
     inkscape:window-height="1176"
     id="namedview3867"
     showgrid="false"
     inkscape:zoom="0.84512762"
     inkscape:cx="292.95556"
     inkscape:cy="418.32684"
     inkscape:window-x="57"
     inkscape:window-y="465"
     inkscape:window-maximized="1"
     inkscape:current-layer="layer8"
     inkscape:showpageshadow="false"
     showborder="true"
     borderlayer="true"
     showguides="false"
     inkscape:guide-bbox="true"
     inkscape:object-nodes="true"
     inkscape:snap-intersection-paths="true"
     inkscape:snap-midpoints="true"
     inkscape:snap-smooth-nodes="true"
     inkscape:object-paths="true"
     inkscape:snap-global="false"><sodipodi:guide
       position="573.25644,728.5739"
       orientation="-0.5,0.8660254"
       id="guide4146"
       inkscape:label=""
       inkscape:color="rgb(0,0,255)" /><sodipodi:guide
       position="583.09606,654.67087"
       orientation="0,1"
       id="guide4150" /><sodipodi:guide
       position="0.1,214.7"
       orientation="0,1"
       id="guide4152" /><sodipodi:guide
       position="417.2676,638.5137"
       orientation="1,0"
       id="guide4154" /><sodipodi:guide
       position="188.15579,214.7"
       orientation="-0.5,0.8660254"
       id="guide4156"
       inkscape:label=""
       inkscape:color="rgb(0,0,255)" /><sodipodi:guide
       position="633.5372,638.5137"
       orientation="-0.5,0.8660254"
       id="guide4160"
       inkscape:label=""
       inkscape:color="rgb(0,0,255)" /><sodipodi:guide
       position="633.5372,453.71743"
       orientation="1,0"
       id="guide4162" /><sodipodi:guide
       position="417.2676,513.65039"
       orientation="0,1"
       id="guide4176" /></sodipodi:namedview><style
     type="text/css"
     id="style3793">
	.st0{fill:#DB1F26;}
	.st1{opacity:0.25;fill:url(#SVGID_1_);enable-background:new    ;}
	.st2{fill:#A51D21;}
	.st3{fill:#E6B35A;}
	.st4{opacity:0.94;}
	.st5{fill:#FFFFFF;}
</style><title
     id="title3797">template</title><linearGradient
     id="SVGID_1_"
     gradientUnits="userSpaceOnUse"
     x1="366.9532"
     y1="973.1201"
     x2="368.2531"
     y2="509.6"
     gradientTransform="matrix(1 0 0 -1 0 852)"><stop
       offset="0"
       style="stop-color:#FFFFFF;stop-opacity:0.83"
       id="stop3799" /><stop
       offset="0.56"
       style="stop-color:#FFFFFF;stop-opacity:0.37"
       id="stop3801" /><stop
       offset="1"
       style="stop-color:#FFFFFF;stop-opacity:0"
       id="stop3803" /></linearGradient><g
     inkscape:groupmode="layer"
     id="layer4"
     inkscape:label="sky"
     sodipodi:insensitive="true"><polygon
       class="st0"
       points="715.1,224.7 367.5,24 19.8,224.7 19.8,626.2 367.5,826.9 715.1,626.2 "
       id="polygon3795"
       style="fill:#4e7ca6;fill-opacity:1"
       transform="matrix(1.055859,0,0,1.055859,-20.525391,-23.765213)"
       inkscape:label="#main-hex" /><path
       class="st2"
       d="m 734.9,637.4 0,-424.3 L 705.6,196.2 427.8,35.8 367.5,1 307.2,35.8 29.4,196.2 0.1,213.1 l 0,424.2 29.3,16.9 281.3,162.4 56.9,32.8 56.9,-32.8 281.3,-162.4 z M 29.4,621.5 29.4,231 79.6,202 367.5,35.8 l 0,0 288.6,166.6 49.5,28.6 0,390.5 -338.1,195.2 z"
       id="path3808"
       style="opacity:0.25;fill:#000000;fill-opacity:1"
       inkscape:connector-curvature="0"
       inkscape:label="#hexagon-border" /></g><g
     inkscape:groupmode="layer"
     id="layer3"
     inkscape:label="mountain"
     sodipodi:insensitive="true"><path
       style="fill:#b7bbbf;fill-opacity:1;fill-rule:evenodd;stroke:none;stroke-width:1px;stroke-linecap:butt;stroke-linejoin:miter;stroke-opacity:1"
       d="m 546.27714,139.00261 -129.00954,74.48369 0,423.8137 216.2696,0 0,-423.8137 20.8823,-12.0564 z"
       id="path4148"
       inkscape:connector-curvature="0"
       inkscape:label="#mountain-face"
       sodipodi:nodetypes="ccc" /><path
       style="fill:#858b94;fill-opacity:1;fill-rule:evenodd;stroke:none;stroke-width:1px;stroke-linecap:butt;stroke-linejoin:miter;stroke-opacity:1"
       d="m 633.5372,213.4863 0,423.8137 -445.38141,0 L 122.4616,675.22856 367.5,816.7 705.6,621.5 705.6,231 654.4195,201.4299 Z"
       id="path4158"
       inkscape:connector-curvature="0"
       sodipodi:nodetypes="ccccccccc"
       inkscape:label="#mountain-ground" /></g><g
     inkscape:groupmode="layer"
     id="layer1"
     inkscape:label="moonlight"
     sodipodi:insensitive="true"><path
       id="path4876"
       style="fill:#a3cef1;fill-opacity:0.66666667;fill-rule:evenodd;stroke:none;stroke-width:1px;stroke-linecap:butt;stroke-linejoin:miter;stroke-opacity:1"
       d="M 525.40241,213.4863 437.60397,637.3 29.400001,265.8 59.537683,213.6 Z"
       inkscape:connector-curvature="0"
       sodipodi:nodetypes="ccccc"
       inkscape:label="#moonlight" /></g><g
     inkscape:groupmode="layer"
     id="layer6"
     inkscape:label="moon"
     style="display:inline"
     sodipodi:insensitive="true"><path
       style="opacity:1;fill:#e7ecef;fill-opacity:1;stroke:none;stroke-width:24;stroke-miterlimit:4;stroke-dasharray:none"
       id="path4168"
       sodipodi:type="arc"
       sodipodi:cx="29.4"
       sodipodi:cy="231"
       sodipodi:rx="34.799999"
       sodipodi:ry="34.799999"
       sodipodi:start="5.7595865"
       sodipodi:end="1.5707963"
       d="m 59.537682,213.6 a 34.799999,34.799999 0 0 1 2e-6,34.8 34.799999,34.799999 0 0 1 -30.137683,17.4 L 29.4,231 Z"
       inkscape:label="#moon" /></g><g
     inkscape:groupmode="layer"
     id="layer2"
     inkscape:label="door"
     sodipodi:insensitive="true"
     style="display:inline"><path
       id="path4861"
       style="fill:#e7ecef;fill-opacity:1;fill-rule:evenodd;stroke:none;stroke-width:1px;stroke-linecap:butt;stroke-linejoin:miter;stroke-opacity:1"
       d="m 525.40241,213.4863 c 48.48973,0 87.79842,55.90321 87.79841,124.86331 l 0,298.95039 -175.59685,0 0,-298.9504 c 10e-6,-68.9601 39.30871,-124.8633 87.79844,-124.8633 z"
       inkscape:connector-curvature="0"
       sodipodi:nodetypes="sccccs"
       inkscape:label="#door" /></g><g
     inkscape:groupmode="layer"
     id="layer7"
     inkscape:label="gandalf"
     sodipodi:insensitive="true"><path
       inkscape:connector-curvature="0"
       id="path5073"
       d="m 358.09211,497.02913 0,140.27087 6.00779,0 0,-140.68834 z"
       style="fill:#858b94;fill-opacity:1;fill-rule:evenodd;stroke:#000000;stroke-width:2;stroke-linecap:square;stroke-linejoin:miter;stroke-miterlimit:4;stroke-dasharray:none;stroke-opacity:1" /><path
       id="path5091"
       style="fill:#b7bbbf;fill-opacity:1;fill-rule:nonzero;stroke:#000000;stroke-width:2;stroke-linecap:square;stroke-linejoin:miter;stroke-miterlimit:4;stroke-dasharray:none;stroke-opacity:1"
       d="m 283.07835,528.12402 1.90866,5.96457 11.21338,14.79212 2.93677,-5.59517 0.0325,-13.73003 -1.06056,-6.56102 m -11.8371,56.02643 2.99,16.08863 -11.86546,-1.56147 2.46028,-15.28631 z m 20.96869,49.15546 -1.82434,8.72654 8.61212,0.007 -0.0358,-8.04036 m -36.8012,-0.95413 -1.82434,8.72654 8.61213,0.007 -0.0358,-8.04036 m -8.73568,-110.74028 -0.29625,-17.96154 -5.77335,-0.94964 12.23949,-8.86336 12.87922,15.40693 m 7.4073,-1.87813 c 0.51316,1.53328 -5.85427,7.04209 -14.22207,12.30427 -8.36781,5.26219 -15.56728,8.28508 -16.08046,6.7518 -0.51317,-1.53328 5.85427,-7.04209 14.22208,-12.30428 8.36782,-5.26219 15.56728,-8.28507 16.08045,-6.75179 z m 39.11675,28.0451 16.35039,-0.6697 -3.23436,11.52242 -14.78051,-4.6109 m -62.67578,40.29889 -5.01989,49.61825 52.55835,0.80858 -21.02334,-92.98783 30.72641,22.64052 9.70309,-36.38656 -41.2381,-0.80859 -7.55202,-10.07595 -15.06866,9.4105 -0.42413,16.43295 -9.70307,41.2381 25.87487,0.40429 -3.48496,-35.44098"
       inkscape:connector-curvature="0"
       sodipodi:nodetypes="ccccccccccccccccccccccccsssssccccccccccccccccc" /><path
       style="opacity:1;fill:#b7bbbf;fill-opacity:1;fill-rule:nonzero;stroke:#bdb7bf;stroke-width:0.11929134;stroke-linecap:butt;stroke-linejoin:miter;stroke-miterlimit:4;stroke-dasharray:none;stroke-opacity:1"
       d="m 283.18212,593.27982 -4.5629,-0.60796 0.009,-0.19097 c 0.009,-0.1951 2.05815,-13.0265 2.08659,-13.06585 0.0336,-0.0465 4.63924,0.53145 4.67322,0.58644 0.0199,0.0322 0.49857,2.54861 1.06377,5.59212 0.56521,3.04352 1.14369,6.15771 1.28552,6.92043 0.25345,1.36296 0.25573,1.38665 0.13287,1.38025 -0.0687,-0.004 -2.1783,-0.28008 -4.68789,-0.61446 z"
       id="path5107"
       inkscape:connector-curvature="0" /></g><g
     inkscape:groupmode="layer"
     id="layer8"
     inkscape:label="text"
     style="display:inline"
     sodipodi:insensitive="true"><text
       xml:space="preserve"
       style="font-style:normal;font-variant:normal;font-weight:normal;font-stretch:normal;font-size:40px;line-height:125%;font-family:'Party Business';-inkscape-font-specification:'Party Business, Normal';text-align:start;letter-spacing:0px;word-spacing:0px;writing-mode:lr-tb;text-anchor:start;fill:#000000;fill-opacity:1;stroke:none;stroke-width:1px;stroke-linecap:butt;stroke-linejoin:miter;stroke-opacity:1"
       x="160.11821"
       y="365.38055"
       id="text3375"
       sodipodi:linespacing="125%"
       inkscape:label="#text"
       clip-path="url(#clipPath4193)"
       transform="matrix(1.4593641,0,0,1.4593641,-168.81633,-143.24077)"><tspan
         sodipodi:role="line"
         id="tspan3377"
         x="160.11821"
         y="365.38055"
         style="font-style:normal;font-variant:normal;font-weight:normal;font-stretch:normal;font-size:90px;line-height:125%;font-family:'Party Business';-inkscape-font-specification:'Party Business, Normal';text-align:start;writing-mode:lr-tb;text-anchor:start">speak friend</tspan></text>
</g><g
     inkscape:groupmode="layer"
     id="layer5"
     inkscape:label="text-clipping"
     style="display:inline"
     sodipodi:insensitive="true" /></svg>